<mxfile host="Electron" agent="Mozilla/5.0 (Windows NT 10.0; Win64; x64) AppleWebKit/537.36 (KHTML, like Gecko) draw.io/28.1.2 Chrome/138.0.7204.243 Electron/37.4.0 Safari/537.36" version="28.1.2">
  <diagram name="Page-1" id="E8OS_swHD81Dn_QDLDen">
    <mxGraphModel dx="1426" dy="889" grid="1" gridSize="10" guides="1" tooltips="1" connect="1" arrows="1" fold="1" page="1" pageScale="1" pageWidth="850" pageHeight="1100" math="0" shadow="0">
      <root>
        <mxCell id="0" />
        <mxCell id="1" parent="0" />
        <mxCell id="1mB-3xt_e9HhNeuD-H28-1" value="CarLights1: Green&lt;div&gt;CarLights2: Red&lt;/div&gt;&lt;div&gt;Pedestrian1: Red&lt;/div&gt;&lt;div&gt;Pedestrian2: White&lt;/div&gt;&lt;div&gt;7-segment: void&lt;/div&gt;" style="strokeWidth=2;html=1;shape=mxgraph.flowchart.start_1;whiteSpace=wrap;" vertex="1" parent="1">
          <mxGeometry x="380" y="390" width="170" height="100" as="geometry" />
        </mxCell>
        <mxCell id="1mB-3xt_e9HhNeuD-H28-2" value="3 sec" style="text;html=1;align=center;verticalAlign=middle;resizable=0;points=[];autosize=1;strokeColor=none;fillColor=none;" vertex="1" parent="1">
          <mxGeometry x="395" y="535" width="50" height="30" as="geometry" />
        </mxCell>
        <mxCell id="1mB-3xt_e9HhNeuD-H28-3" value="Button 1 pressed?" style="strokeWidth=2;html=1;shape=mxgraph.flowchart.decision;whiteSpace=wrap;" vertex="1" parent="1">
          <mxGeometry x="595" y="390" width="150" height="100" as="geometry" />
        </mxCell>
        <mxCell id="1mB-3xt_e9HhNeuD-H28-4" value="" style="endArrow=classic;html=1;rounded=0;entryX=0;entryY=0.5;entryDx=0;entryDy=0;entryPerimeter=0;exitX=1;exitY=0.5;exitDx=0;exitDy=0;exitPerimeter=0;" edge="1" parent="1" source="1mB-3xt_e9HhNeuD-H28-1" target="1mB-3xt_e9HhNeuD-H28-3">
          <mxGeometry width="50" height="50" relative="1" as="geometry">
            <mxPoint x="645" y="525" as="sourcePoint" />
            <mxPoint x="1145" y="445" as="targetPoint" />
          </mxGeometry>
        </mxCell>
        <mxCell id="1mB-3xt_e9HhNeuD-H28-5" value="" style="endArrow=classic;html=1;rounded=0;exitX=0.5;exitY=0;exitDx=0;exitDy=0;exitPerimeter=0;entryX=0;entryY=0.5;entryDx=0;entryDy=0;entryPerimeter=0;" edge="1" parent="1" source="1mB-3xt_e9HhNeuD-H28-3" target="1mB-3xt_e9HhNeuD-H28-27">
          <mxGeometry width="50" height="50" relative="1" as="geometry">
            <mxPoint x="960" y="640" as="sourcePoint" />
            <mxPoint x="1010" y="590" as="targetPoint" />
            <Array as="points">
              <mxPoint x="670" y="250" />
            </Array>
          </mxGeometry>
        </mxCell>
        <mxCell id="1mB-3xt_e9HhNeuD-H28-6" value="" style="endArrow=classic;html=1;rounded=0;exitX=0.5;exitY=1;exitDx=0;exitDy=0;exitPerimeter=0;entryX=0;entryY=0.5;entryDx=0;entryDy=0;entryPerimeter=0;" edge="1" parent="1" source="1mB-3xt_e9HhNeuD-H28-3" target="1mB-3xt_e9HhNeuD-H28-15">
          <mxGeometry width="50" height="50" relative="1" as="geometry">
            <mxPoint x="670" y="520" as="sourcePoint" />
            <mxPoint x="810" y="650" as="targetPoint" />
            <Array as="points">
              <mxPoint x="670" y="650" />
            </Array>
          </mxGeometry>
        </mxCell>
        <mxCell id="1mB-3xt_e9HhNeuD-H28-7" value="No" style="text;html=1;align=center;verticalAlign=middle;resizable=0;points=[];autosize=1;strokeColor=none;fillColor=none;" vertex="1" parent="1">
          <mxGeometry x="630" y="330" width="40" height="30" as="geometry" />
        </mxCell>
        <mxCell id="1mB-3xt_e9HhNeuD-H28-8" value="Yes" style="text;html=1;align=center;verticalAlign=middle;resizable=0;points=[];autosize=1;strokeColor=none;fillColor=none;" vertex="1" parent="1">
          <mxGeometry x="630" y="520" width="40" height="30" as="geometry" />
        </mxCell>
        <mxCell id="1mB-3xt_e9HhNeuD-H28-9" value="CarLights1: Green&lt;div&gt;CarLights2: Red&lt;/div&gt;&lt;div&gt;Pedestrian1: Red&lt;/div&gt;&lt;div&gt;Pedestrian2: Red&lt;/div&gt;&lt;div&gt;7-segment: void&lt;/div&gt;" style="strokeWidth=2;html=1;shape=mxgraph.flowchart.start_1;whiteSpace=wrap;" vertex="1" parent="1">
          <mxGeometry x="970" y="500" width="190" height="130" as="geometry" />
        </mxCell>
        <mxCell id="1mB-3xt_e9HhNeuD-H28-10" value="CarLights1: Yellow&lt;div&gt;CarLights2: Red&lt;/div&gt;&lt;div&gt;Pedestrian1: Red&lt;/div&gt;&lt;div&gt;Pedestrian2: Red&lt;/div&gt;&lt;div&gt;7-segment: void&lt;/div&gt;" style="strokeWidth=2;html=1;shape=mxgraph.flowchart.start_1;whiteSpace=wrap;" vertex="1" parent="1">
          <mxGeometry x="1240" y="510" width="180" height="110" as="geometry" />
        </mxCell>
        <mxCell id="1mB-3xt_e9HhNeuD-H28-11" value="7 sec" style="text;html=1;align=center;verticalAlign=middle;resizable=0;points=[];autosize=1;strokeColor=none;fillColor=none;" vertex="1" parent="1">
          <mxGeometry x="1180" y="528" width="50" height="30" as="geometry" />
        </mxCell>
        <mxCell id="1mB-3xt_e9HhNeuD-H28-12" value="CarLights1: Green&lt;div&gt;CarLights2: Red&lt;/div&gt;&lt;div&gt;Pedestrian1: Flashing Red&lt;/div&gt;&lt;div&gt;Pedestrian2: Red&lt;/div&gt;&lt;div&gt;7-segment: Countdown start&lt;/div&gt;" style="strokeWidth=2;html=1;shape=mxgraph.flowchart.start_1;whiteSpace=wrap;" vertex="1" parent="1">
          <mxGeometry x="360" y="680" width="190" height="130" as="geometry" />
        </mxCell>
        <mxCell id="1mB-3xt_e9HhNeuD-H28-13" value="CarLights1: Yellow&lt;div&gt;CarLights2: Red&lt;/div&gt;&lt;div&gt;Pedestrian1: Flashing Red&lt;/div&gt;&lt;div&gt;Pedestrian2: Red&lt;/div&gt;&lt;div&gt;7-segment: Countdown&lt;/div&gt;" style="strokeWidth=2;html=1;shape=mxgraph.flowchart.start_1;whiteSpace=wrap;" vertex="1" parent="1">
          <mxGeometry x="40" y="385" width="180" height="110" as="geometry" />
        </mxCell>
        <mxCell id="1mB-3xt_e9HhNeuD-H28-14" value="3 sec" style="text;html=1;align=center;verticalAlign=middle;resizable=0;points=[];autosize=1;strokeColor=none;fillColor=none;" vertex="1" parent="1">
          <mxGeometry x="290" y="480" width="50" height="30" as="geometry" />
        </mxCell>
        <mxCell id="1mB-3xt_e9HhNeuD-H28-15" value="Button 2 pressed?" style="strokeWidth=2;html=1;shape=mxgraph.flowchart.decision;whiteSpace=wrap;" vertex="1" parent="1">
          <mxGeometry x="810" y="600" width="160" height="100" as="geometry" />
        </mxCell>
        <mxCell id="1mB-3xt_e9HhNeuD-H28-16" value="" style="endArrow=classic;html=1;rounded=0;exitX=0.5;exitY=0;exitDx=0;exitDy=0;exitPerimeter=0;entryX=0;entryY=0.5;entryDx=0;entryDy=0;entryPerimeter=0;" edge="1" parent="1" source="1mB-3xt_e9HhNeuD-H28-15" target="1mB-3xt_e9HhNeuD-H28-9">
          <mxGeometry width="50" height="50" relative="1" as="geometry">
            <mxPoint x="910" y="580" as="sourcePoint" />
            <mxPoint x="1020" y="540" as="targetPoint" />
            <Array as="points">
              <mxPoint x="890" y="565" />
            </Array>
          </mxGeometry>
        </mxCell>
        <mxCell id="1mB-3xt_e9HhNeuD-H28-17" value="" style="endArrow=classic;html=1;rounded=0;exitX=1;exitY=0.5;exitDx=0;exitDy=0;exitPerimeter=0;entryX=0;entryY=0.5;entryDx=0;entryDy=0;entryPerimeter=0;" edge="1" parent="1" source="1mB-3xt_e9HhNeuD-H28-9" target="1mB-3xt_e9HhNeuD-H28-10">
          <mxGeometry width="50" height="50" relative="1" as="geometry">
            <mxPoint x="850" y="950" as="sourcePoint" />
            <mxPoint x="900" y="900" as="targetPoint" />
          </mxGeometry>
        </mxCell>
        <mxCell id="1mB-3xt_e9HhNeuD-H28-18" value="8 sec" style="text;html=1;align=center;verticalAlign=middle;resizable=0;points=[];autosize=1;strokeColor=none;fillColor=none;" vertex="1" parent="1">
          <mxGeometry x="910" y="570" width="50" height="30" as="geometry" />
        </mxCell>
        <mxCell id="1mB-3xt_e9HhNeuD-H28-19" value="No" style="text;html=1;align=center;verticalAlign=middle;resizable=0;points=[];autosize=1;strokeColor=none;fillColor=none;" vertex="1" parent="1">
          <mxGeometry x="840" y="570" width="40" height="30" as="geometry" />
        </mxCell>
        <mxCell id="1mB-3xt_e9HhNeuD-H28-20" value="Yes" style="text;html=1;align=center;verticalAlign=middle;resizable=0;points=[];autosize=1;strokeColor=none;fillColor=none;" vertex="1" parent="1">
          <mxGeometry x="840" y="710" width="40" height="30" as="geometry" />
        </mxCell>
        <mxCell id="1mB-3xt_e9HhNeuD-H28-21" value="4 sec" style="text;html=1;align=center;verticalAlign=middle;resizable=0;points=[];autosize=1;strokeColor=none;fillColor=none;" vertex="1" parent="1">
          <mxGeometry x="900" y="710" width="50" height="30" as="geometry" />
        </mxCell>
        <mxCell id="1mB-3xt_e9HhNeuD-H28-32" value="CarLights1: Green&lt;div&gt;CarLights2: Red&lt;/div&gt;&lt;div&gt;Pedestrian1: Flashing Red&lt;/div&gt;&lt;div&gt;Pedestrian2: Red&lt;/div&gt;&lt;div&gt;7-segment: Countdown start&lt;/div&gt;" style="strokeWidth=2;html=1;shape=mxgraph.flowchart.start_1;whiteSpace=wrap;movable=1;resizable=1;rotatable=1;deletable=1;editable=1;locked=0;connectable=1;" vertex="1" parent="1">
          <mxGeometry x="355" y="80" width="190" height="130" as="geometry" />
        </mxCell>
        <mxCell id="1mB-3xt_e9HhNeuD-H28-33" value="7 sec" style="text;html=1;align=center;verticalAlign=middle;resizable=1;points=[];autosize=1;strokeColor=none;fillColor=none;movable=1;rotatable=1;deletable=1;editable=1;locked=0;connectable=1;" vertex="1" parent="1">
          <mxGeometry x="110" y="108" width="50" height="30" as="geometry" />
        </mxCell>
        <mxCell id="1mB-3xt_e9HhNeuD-H28-34" value="" style="endArrow=classic;html=1;rounded=0;exitX=0.5;exitY=0;exitDx=0;exitDy=0;exitPerimeter=0;entryX=1;entryY=0.5;entryDx=0;entryDy=0;entryPerimeter=0;movable=1;resizable=1;rotatable=1;deletable=1;editable=1;locked=0;connectable=1;" edge="1" parent="1" source="1mB-3xt_e9HhNeuD-H28-27" target="1mB-3xt_e9HhNeuD-H28-32">
          <mxGeometry width="50" height="50" relative="1" as="geometry">
            <mxPoint x="-180" y="180" as="sourcePoint" />
            <mxPoint x="-50" y="120" as="targetPoint" />
            <Array as="points">
              <mxPoint x="890" y="145" />
            </Array>
          </mxGeometry>
        </mxCell>
        <mxCell id="1mB-3xt_e9HhNeuD-H28-35" value="" style="endArrow=classic;html=1;rounded=0;entryX=0.5;entryY=0;entryDx=0;entryDy=0;entryPerimeter=0;movable=1;resizable=1;rotatable=1;deletable=1;editable=1;locked=0;connectable=1;exitX=0;exitY=0.5;exitDx=0;exitDy=0;exitPerimeter=0;" edge="1" parent="1" source="1mB-3xt_e9HhNeuD-H28-32" target="1mB-3xt_e9HhNeuD-H28-13">
          <mxGeometry width="50" height="50" relative="1" as="geometry">
            <mxPoint x="200" y="250" as="sourcePoint" />
            <mxPoint x="250" y="145" as="targetPoint" />
            <Array as="points">
              <mxPoint x="130" y="145" />
            </Array>
          </mxGeometry>
        </mxCell>
        <mxCell id="1mB-3xt_e9HhNeuD-H28-36" value="" style="endArrow=classic;html=1;rounded=0;entryX=1;entryY=0.5;entryDx=0;entryDy=0;entryPerimeter=0;exitX=0.5;exitY=1;exitDx=0;exitDy=0;exitPerimeter=0;" edge="1" parent="1" source="1mB-3xt_e9HhNeuD-H28-15" target="1mB-3xt_e9HhNeuD-H28-12">
          <mxGeometry width="50" height="50" relative="1" as="geometry">
            <mxPoint x="630" y="760" as="sourcePoint" />
            <mxPoint x="680" y="710" as="targetPoint" />
            <Array as="points">
              <mxPoint x="890" y="745" />
            </Array>
          </mxGeometry>
        </mxCell>
        <mxCell id="1mB-3xt_e9HhNeuD-H28-37" value="" style="endArrow=classic;html=1;rounded=0;exitX=0;exitY=0.5;exitDx=0;exitDy=0;exitPerimeter=0;entryX=0.5;entryY=1;entryDx=0;entryDy=0;entryPerimeter=0;" edge="1" parent="1" source="1mB-3xt_e9HhNeuD-H28-12" target="1mB-3xt_e9HhNeuD-H28-13">
          <mxGeometry width="50" height="50" relative="1" as="geometry">
            <mxPoint x="470" y="530" as="sourcePoint" />
            <mxPoint x="520" y="480" as="targetPoint" />
            <Array as="points">
              <mxPoint x="130" y="745" />
            </Array>
          </mxGeometry>
        </mxCell>
        <mxCell id="1mB-3xt_e9HhNeuD-H28-23" value="CarLights1: Green&lt;div&gt;CarLights2: Red&lt;/div&gt;&lt;div&gt;Pedestrian1: Red&lt;/div&gt;&lt;div&gt;Pedestrian2: Red&lt;/div&gt;&lt;div&gt;7-segment: void&lt;/div&gt;" style="strokeWidth=2;html=1;shape=mxgraph.flowchart.start_1;whiteSpace=wrap;movable=1;resizable=1;rotatable=1;deletable=1;editable=1;locked=0;connectable=1;" vertex="1" parent="1">
          <mxGeometry x="970" y="280" width="190" height="130" as="geometry" />
        </mxCell>
        <mxCell id="1mB-3xt_e9HhNeuD-H28-24" value="CarLights1: Yellow&lt;div&gt;CarLights2: Red&lt;/div&gt;&lt;div&gt;Pedestrian1: Red&lt;/div&gt;&lt;div&gt;Pedestrian2: Red&lt;/div&gt;&lt;div&gt;7-segment: void&lt;/div&gt;" style="strokeWidth=2;html=1;shape=mxgraph.flowchart.start_1;whiteSpace=wrap;movable=1;resizable=1;rotatable=1;deletable=1;editable=1;locked=0;connectable=1;" vertex="1" parent="1">
          <mxGeometry x="1240" y="290" width="180" height="110" as="geometry" />
        </mxCell>
        <mxCell id="1mB-3xt_e9HhNeuD-H28-25" value="" style="endArrow=classic;html=1;rounded=0;exitX=1;exitY=0.5;exitDx=0;exitDy=0;exitPerimeter=0;entryX=0;entryY=0.5;entryDx=0;entryDy=0;entryPerimeter=0;movable=1;resizable=1;rotatable=1;deletable=1;editable=1;locked=0;connectable=1;" edge="1" parent="1" source="1mB-3xt_e9HhNeuD-H28-23" target="1mB-3xt_e9HhNeuD-H28-24">
          <mxGeometry width="50" height="50" relative="1" as="geometry">
            <mxPoint x="1310" y="290" as="sourcePoint" />
            <mxPoint x="1360" y="240" as="targetPoint" />
          </mxGeometry>
        </mxCell>
        <mxCell id="1mB-3xt_e9HhNeuD-H28-26" value="3 sec" style="text;html=1;align=center;verticalAlign=middle;resizable=1;points=[];autosize=1;strokeColor=none;fillColor=none;movable=1;rotatable=1;deletable=1;editable=1;locked=0;connectable=1;" vertex="1" parent="1">
          <mxGeometry x="1180" y="310" width="50" height="30" as="geometry" />
        </mxCell>
        <mxCell id="1mB-3xt_e9HhNeuD-H28-27" value="Button 2 pressed?" style="strokeWidth=2;html=1;shape=mxgraph.flowchart.decision;whiteSpace=wrap;movable=1;resizable=1;rotatable=1;deletable=1;editable=1;locked=0;connectable=1;" vertex="1" parent="1">
          <mxGeometry x="810" y="200" width="160" height="100" as="geometry" />
        </mxCell>
        <mxCell id="1mB-3xt_e9HhNeuD-H28-28" value="" style="endArrow=classic;html=1;rounded=0;exitX=0.5;exitY=1;exitDx=0;exitDy=0;exitPerimeter=0;entryX=0;entryY=0.5;entryDx=0;entryDy=0;entryPerimeter=0;movable=1;resizable=1;rotatable=1;deletable=1;editable=1;locked=0;connectable=1;" edge="1" parent="1" source="1mB-3xt_e9HhNeuD-H28-27" target="1mB-3xt_e9HhNeuD-H28-23">
          <mxGeometry width="50" height="50" relative="1" as="geometry">
            <mxPoint x="960" y="550" as="sourcePoint" />
            <mxPoint x="1010" y="500" as="targetPoint" />
            <Array as="points">
              <mxPoint x="890" y="345" />
            </Array>
          </mxGeometry>
        </mxCell>
        <mxCell id="1mB-3xt_e9HhNeuD-H28-29" value="Yes" style="text;html=1;align=center;verticalAlign=middle;resizable=1;points=[];autosize=1;strokeColor=none;fillColor=none;movable=1;rotatable=1;deletable=1;editable=1;locked=0;connectable=1;" vertex="1" parent="1">
          <mxGeometry x="840" y="170" width="40" height="30" as="geometry" />
        </mxCell>
        <mxCell id="1mB-3xt_e9HhNeuD-H28-30" value="No" style="text;html=1;align=center;verticalAlign=middle;resizable=1;points=[];autosize=1;strokeColor=none;fillColor=none;movable=1;rotatable=1;deletable=1;editable=1;locked=0;connectable=1;" vertex="1" parent="1">
          <mxGeometry x="840" y="310" width="40" height="30" as="geometry" />
        </mxCell>
        <mxCell id="1mB-3xt_e9HhNeuD-H28-31" value="4 sec" style="text;html=1;align=center;verticalAlign=middle;resizable=1;points=[];autosize=1;strokeColor=none;fillColor=none;movable=1;rotatable=1;deletable=1;editable=1;locked=0;connectable=1;" vertex="1" parent="1">
          <mxGeometry x="900" y="310" width="50" height="30" as="geometry" />
        </mxCell>
      </root>
    </mxGraphModel>
  </diagram>
</mxfile>
